<svg width="36" height="36" viewBox="0 0 36 36" fill="none" xmlns="http://www.w3.org/2000/svg">
<path d="M12.086 15.1562C12.2266 14.8593 12.3907 14.5781 12.5782 14.3047L12.547 12.2734C12.547 12.0859 12.6251 11.9062 12.7735 11.7812C13.5001 11.1718 14.3282 10.6797 15.2423 10.3515C15.422 10.289 15.6173 10.3047 15.7735 10.4062L17.5157 11.4531C17.8438 11.4297 18.172 11.4297 18.5001 11.4531L20.2423 10.4062C20.4063 10.3125 20.6016 10.289 20.7813 10.3515C21.672 10.6718 22.5079 11.1484 23.2501 11.7734C23.3907 11.8906 23.4766 12.0781 23.4688 12.2656L23.4376 14.2968C23.6251 14.5703 23.7891 14.8515 23.9298 15.1484L25.7032 16.1328C25.8673 16.2265 25.9845 16.3828 26.0157 16.5703C26.1798 17.5 26.1876 18.4687 26.0157 19.414C25.9845 19.6015 25.8673 19.7578 25.7032 19.8515L23.9298 20.8359C23.7891 21.1328 23.6251 21.414 23.4376 21.6875L23.4688 23.7187C23.4688 23.9062 23.3907 24.0859 23.2423 24.2109C22.5157 24.8203 21.6876 25.3125 20.7735 25.6406C20.5938 25.7031 20.3985 25.6875 20.2423 25.5859L18.5001 24.539C18.172 24.5625 17.8438 24.5625 17.5157 24.539L15.7735 25.5859C15.6095 25.6797 15.4141 25.7031 15.2345 25.6406C14.3438 25.3203 13.5079 24.8437 12.7657 24.2187C12.6251 24.1015 12.5391 23.914 12.547 23.7265L12.5782 21.6953C12.3907 21.4218 12.2266 21.1406 12.086 20.8437L10.3126 19.8593C10.1485 19.7656 10.0313 19.6093 10.0001 19.4218C9.83602 18.4922 9.8282 17.5234 10.0001 16.5781C10.0313 16.3906 10.1485 16.2343 10.3126 16.1406L12.086 15.1562Z" stroke="white" stroke-opacity="0.95" stroke-width="1.5" stroke-miterlimit="10" stroke-linecap="round" stroke-linejoin="round"/>
<path d="M18 21.75C20.0711 21.75 21.75 20.0711 21.75 18C21.75 15.9289 20.0711 14.25 18 14.25C15.9289 14.25 14.25 15.9289 14.25 18C14.25 20.0711 15.9289 21.75 18 21.75Z" stroke="white" stroke-opacity="0.95" stroke-width="1.5" stroke-miterlimit="10" stroke-linecap="round" stroke-linejoin="round"/>
</svg>
